<svg xmlns="http://www.w3.org/2000/svg" viewBox="0 0 512 512"><path fill="#81d9e3" d="M242.85 102.87a143.81 143.81 0 0 1 47.37 3.48c-3.14 5.69-4.91 12.3-3.82 18.8.59 4.79 3.04 9.7 1.11 14.48-11.33.03-24.52-.73-33.52 7.44-5.56 5.12-2.24 13.62-6.54 19.38-4.24 3.72-10.19 5.96-12.5 11.5-2.27 4.37-1.21 10.23 2.63 13.36 3.61 2.53 8.06 3.4 12.39 3.62 12.3.7 24.76-2 36.99.45 4.68 1.09 9.76 2.78 12.54 7a15.5 15.5 0 0 1 1.91 9.62c-1.49 3.52-6 4.07-9.36 4.09-8.35-.39-16.75-.74-24.98-2.29-13.81-4.24-28.54-8.28-43.01-5.09-16.68 3.19-30.56 16.6-35.32 32.76-2.5 9.46-2.72 19.75.72 29.01 2.61 6.84 8.02 12.37 14.53 15.62 6.1 3.02 12.33 6.08 19.1 7.24 7.68.93 15.88-2.06 23.19 1.46 4.93 2.27 6.41 8.22 5.83 13.19a19.6 19.6 0 0 0 2.88 12.05c3.58 6.02 2.78 13.26 3.32 19.95.71 11.36 4.39 23 12.32 31.4a15.4 15.4 0 0 0 13.34 4.64c7.74-.55 13.73-6.02 19.6-10.5 7.32-6.01 14.28-13.06 18.14-21.84 4.17-10.99 1.27-23.64 6.8-34.25 4.45-8.26 11.5-14.76 15.96-23.03 2.03-4.01 5.72-7.68 5.22-12.5.03-3.58-3.17-6.2-6.27-7.34-5.73-2.17-12.18-3.74-16.19-8.76-2.27-2.96-6.46-5.53-5.66-9.79.12-2.09 1.7-3.64 3.38-4.67 4.98 3.48 10.89 6.01 17.08 5.48 5.57.1 11.66-3.91 12.07-9.81.3-4.76-2.61-8.76-4.08-13.07-1.5-3.59 2.2-7.93 5.95-7.29 4.84.54 9.84 2.37 12.94 6.31 2.15 2.87 6.16 2.61 9.3 1.91 7.21-1.91 14.4-5.81 22.07-4.14 4.67 1.65 6.64 6.82 7.62 11.27 3.33 19.06 1.66 38.72-2.63 57.48a153.82 153.82 0 0 1-50.24 81.55 153.48 153.48 0 0 1-75.59 34.6c-10.12-12.78-24.67-22.34-40.79-25.34-17.04-2.84-34.86.95-49.83 9.44-.95.45-2.02 1.35-3.07.6a159.05 159.05 0 0 1-37.54-27.27c3.11-2.12 6.18-4.63 7.7-8.18 2.6-5.62 2.51-12.02 1.42-17.98-1.17-10.87 5.8-20.29 6.6-30.89a26.83 26.83 0 0 0-7.18-17.83c-6.1-7.25-15.34-11.71-19.79-20.32-2.53-8.01-2.12-16.61-1.51-24.89a17.17 17.17 0 0 0-5.82-13.61c-6.36-5.88-15.22-7.44-23.49-8.63 1-6.43 3.42-12.53 5.11-18.79 8.51 2.82 17.05-1.88 23.34-7.36 4.47-3.52 7.53-8.57 12.37-11.65 7.53-5.14 16.87-7.09 23.82-13.15a24.4 24.4 0 0 0 8.47-18.78c.14-5.1-1.64-10-1.75-15.08-.06-4.34-1.73-8.39-2.38-12.63 17.67-10.67 37.33-18.38 57.83-21.16-.08 5.57 1.94 13.62-4.11 16.8-9.48 3.97-19.58 7.46-27.17 14.7-2.69 2.71-5.23 6.34-4.45 10.38.4 3.54 4.84 6.75 8.02 4.21 2.38-1.15 2.47-3.91 2.42-6.19 6.2-6.3 14.65-9.54 22.75-12.63 4.69-1.82 9.26-4.94 11.16-9.8 2.26-5.98 1.56-12.5 1.28-18.74m128.52 199.54c-3.68 1.21-3.11 5.45-2.82 8.48a33.83 33.83 0 0 1-9.14 15.46c-2.12 1.82-5.99 2.28-6.03 5.76-.86 3.92 3.78 7.13 7.25 5.38 7.44-3.1 12.08-10.45 15.54-17.39 1.92-4.86 4.33-10.73 1.42-15.68-1.1-2.3-4.03-2.58-6.22-2.01z"/><g fill="#2e4356"><path d="M242.67 92.94c12.12-1.97 24.35-.3 36.45.93a163.83 163.83 0 0 1 69.82 27.42c38.04 26.1 64.27 68.88 69.53 114.77.83 9.31 2.2 18.65 1.17 28-.99 7.6-1.05 15.33-2.91 22.8-7.73 42.02-33.15 80.24-68.4 104.28-23.91 16.4-52.25 26.37-81.2 28.14-11.66 1.76-23.37-.16-34.98-1.25a164.15 164.15 0 0 1-53.47-17.77 164.79 164.79 0 0 1-65.48-64.28 163.42 163.42 0 0 1-19.28-56.59c-1.17-11.8-2.99-23.72-1.09-35.55 3.1-49.96 31.4-97.23 73.18-124.56 22.8-15 49.4-24.44 76.66-26.34m.18 9.93c.28 6.24.98 12.76-1.28 18.74-1.9 4.86-6.47 7.98-11.16 9.8-8.1 3.09-16.55 6.33-22.75 12.63.05 2.28-.04 5.04-2.42 6.19-3.18 2.54-7.62-.67-8.02-4.21-.78-4.04 1.76-7.67 4.45-10.38 7.59-7.24 17.69-10.73 27.17-14.7 6.05-3.18 4.03-11.23 4.11-16.8-20.5 2.78-40.16 10.49-57.83 21.16.65 4.24 2.32 8.29 2.38 12.63.11 5.08 1.89 9.98 1.75 15.08a24.4 24.4 0 0 1-8.47 18.78c-6.95 6.06-16.29 8.01-23.82 13.15-4.84 3.08-7.9 8.13-12.37 11.65-6.29 5.48-14.83 10.18-23.34 7.36-1.69 6.26-4.11 12.36-5.11 18.79 8.27 1.19 17.13 2.75 23.49 8.63a17.17 17.17 0 0 1 5.82 13.61c-.61 8.28-1.02 16.88 1.51 24.89 4.45 8.61 13.69 13.07 19.79 20.32a26.83 26.83 0 0 1 7.18 17.83c-.8 10.6-7.77 20.02-6.6 30.89 1.09 5.96 1.18 12.36-1.42 17.98-1.52 3.55-4.59 6.06-7.7 8.18a159.05 159.05 0 0 0 37.54 27.27c1.05.75 2.12-.15 3.07-.6 14.97-8.49 32.79-12.28 49.83-9.44 16.12 3 30.67 12.56 40.79 25.34a153.48 153.48 0 0 0 75.59-34.6 153.82 153.82 0 0 0 50.24-81.55c4.29-18.76 5.96-38.42 2.63-57.48-.98-4.45-2.95-9.62-7.62-11.27-7.67-1.67-14.86 2.23-22.07 4.14-3.14.7-7.15.96-9.3-1.91-3.1-3.94-8.1-5.77-12.94-6.31-3.75-.64-7.45 3.7-5.95 7.29 1.47 4.31 4.38 8.31 4.08 13.07-.41 5.9-6.5 9.91-12.07 9.81-6.19.53-12.1-2-17.08-5.48-1.68 1.03-3.26 2.58-3.38 4.67-.8 4.26 3.39 6.83 5.66 9.79 4.01 5.02 10.46 6.59 16.19 8.76 3.1 1.14 6.3 3.76 6.27 7.34.5 4.82-3.19 8.49-5.22 12.5-4.46 8.27-11.51 14.77-15.96 23.03-5.53 10.61-2.63 23.26-6.8 34.25-3.86 8.78-10.82 15.83-18.14 21.84-5.87 4.48-11.86 9.95-19.6 10.5a15.4 15.4 0 0 1-13.34-4.64c-7.93-8.4-11.61-20.04-12.32-31.4-.54-6.69.26-13.93-3.32-19.95a19.6 19.6 0 0 1-2.88-12.05c.58-4.97-.9-10.92-5.83-13.19-7.31-3.52-15.51-.53-23.19-1.46-6.77-1.16-13-4.22-19.1-7.24-6.51-3.25-11.92-8.78-14.53-15.62-3.44-9.26-3.22-19.55-.72-29.01 4.76-16.16 18.64-29.57 35.32-32.76 14.47-3.19 29.2.85 43.01 5.09 8.23 1.55 16.63 1.9 24.98 2.29 3.36-.02 7.87-.57 9.36-4.09a15.5 15.5 0 0 0-1.91-9.62c-2.78-4.22-7.86-5.91-12.54-7-12.23-2.45-24.69.25-36.99-.45-4.33-.22-8.78-1.09-12.39-3.62-3.84-3.13-4.9-8.99-2.63-13.36 2.31-5.54 8.26-7.78 12.5-11.5 4.3-5.76.98-14.26 6.54-19.38 9-8.17 22.19-7.41 33.52-7.44 1.93-4.78-.52-9.69-1.11-14.48-1.09-6.5.68-13.11 3.82-18.8a143.81 143.81 0 0 0-47.37-3.48m58.14 6.04c-4.01 4.52-6.03 11.11-4.12 16.99 1.34 4.58 2.06 9.45 1.2 14.2a12 12 0 0 1-8.44 9.37c-6.15.95-12.48-.52-18.58.99-3.58.91-8.06 1.14-10.21 4.6-1.13 5.05-.92 10.54-3.76 15.08-2.36 4.89-7.56 7.13-11.59 10.35-1.17.66-1.2 2.01-1.38 3.17a42.12 42.12 0 0 0 12.85 1.27c11.3-.74 22.87-1.82 33.99.98 5.79 1.37 11.48 4.12 15.44 8.67 4.83 5.8 6.4 14.16 4.39 21.38-2.65 7.12-10.66 10.19-17.74 10.25-8.56-.09-17.09-.98-25.59-1.85-7.53-1.94-14.93-4.41-22.6-5.78-8.63-1.04-17.83-1.39-25.9 2.37-12.67 5.72-21.85 19-21.84 33.02-.29 6.29.8 13.07 4.99 18.01 3.8 4.57 9.61 6.52 14.84 8.94a24.3 24.3 0 0 0 14.13 2.06c9.19-1.07 19.79.38 26.23 7.69 4.25 4.68 5.1 11.23 4.91 17.31-.53 4.13 2.32 7.42 3.69 11.07 3.03 7.31 1.89 15.42 2.85 23.1 1.18 7.87 3.6 15.97 9.13 21.92 3.12 3.35 8.25 1.48 11.46-.77 8.64-6.06 17.22-12.97 22.37-22.37 3.64-9.89 1.82-20.89 5.33-30.83 2.65-8.2 8.5-14.73 13.62-21.46 3.11-4.01 5.43-8.54 8.15-12.8-4.36-1.71-8.87-3.16-12.85-5.69-3.66-2.25-6.38-5.65-9.27-8.76-3.28-3.65-6.03-8.4-5.43-13.48.62-4.88 2.88-9.84 7.16-12.54 3.62-2.67 8.88-2.65 12.59-.17 3.76 2.38 8.43 4.58 12.91 3.01-1.04-3.87-3.39-7.27-4.05-11.25-1.79-8.34 4.66-17.42 13.22-18.23 8.1-.62 16.63 2.25 22.33 8.16 9.13-2.26 18.52-6.87 28.07-3.78-6.76-23.82-19.68-45.84-36.86-63.64-17.95-18.85-40.86-32.71-65.64-40.56m-135.61 23.12c-21.76 15.95-39.66 37.66-50.04 62.64 3.65.36 6.86-1.56 9.73-3.55 6.02-3.95 9.79-10.4 15.79-14.36 5.94-4.14 12.83-6.5 19.18-9.86 4.42-2.39 8.67-6.51 8.78-11.85.46-7.69-1.69-15.21-2.34-22.83l-1.1-.19m-61.16 101.1c-2.77 15.44-2.34 31.35.18 46.79 4.22 27.88 16.74 54.3 34.95 75.79 2.74.2 5.95-.29 7.22-3.11 2.32-5.61.21-11.75.56-17.59.11-8.05 3.46-15.5 5.84-23.05 1.59-4.59.44-9.74-2.57-13.47-6.31-7.98-16.01-12.77-21.24-21.69-4.55-7.03-3.88-15.74-4.16-23.73-.29-4.7 1.9-10.37-2.06-14.07-5.05-4.49-12.19-5.58-18.72-5.87m94.57 165.03c20.99 9.1 44.29 12.25 67.05 11.2l-.23-1.04c-6.49-7.07-15.11-12.04-24.27-14.8-14.15-3.88-29.43-1.64-42.55 4.64z"/><path d="M371.37 302.41c2.19-.57 5.12-.29 6.22 2.01 2.91 4.95.5 10.82-1.42 15.68-3.46 6.94-8.1 14.29-15.54 17.39-3.47 1.75-8.11-1.46-7.25-5.38.04-3.48 3.91-3.94 6.03-5.76a33.83 33.83 0 0 0 9.14-15.46c-.29-3.03-.86-7.27 2.82-8.48z"/></g><g fill="#98e07d"><path d="M300.99 108.91c24.78 7.85 47.69 21.71 65.64 40.56 17.18 17.8 30.1 39.82 36.86 63.64-9.55-3.09-18.94 1.52-28.07 3.78-5.7-5.91-14.23-8.78-22.33-8.16-8.56.81-15.01 9.89-13.22 18.23.66 3.98 3.01 7.38 4.05 11.25-4.48 1.57-9.15-.63-12.91-3.01-3.71-2.48-8.97-2.5-12.59.17-4.28 2.7-6.54 7.66-7.16 12.54-.6 5.08 2.15 9.83 5.43 13.48 2.89 3.11 5.61 6.51 9.27 8.76 3.98 2.53 8.49 3.98 12.85 5.69-2.72 4.26-5.04 8.79-8.15 12.8-5.12 6.73-10.97 13.26-13.62 21.46-3.51 9.94-1.69 20.94-5.33 30.83-5.15 9.4-13.73 16.31-22.37 22.37-3.21 2.25-8.34 4.12-11.46.77-5.53-5.95-7.95-14.05-9.13-21.92-.96-7.68.18-15.79-2.85-23.1-1.37-3.65-4.22-6.94-3.69-11.07.19-6.08-.66-12.63-4.91-17.31-6.44-7.31-17.04-8.76-26.23-7.69-4.8.77-9.74 0-14.13-2.06-5.23-2.42-11.04-4.37-14.84-8.94-4.19-4.94-5.28-11.72-4.99-18.01-.01-14.02 9.17-27.3 21.84-33.02 8.07-3.76 17.27-3.41 25.9-2.37 7.67 1.37 15.07 3.84 22.6 5.78 8.5.87 17.03 1.76 25.59 1.85 7.08-.06 15.09-3.13 17.74-10.25 2.01-7.22.44-15.58-4.39-21.38-3.96-4.55-9.65-7.3-15.44-8.67-11.12-2.8-22.69-1.72-33.99-.98-4.33.27-8.66-.22-12.85-1.27.18-1.16.21-2.51 1.38-3.17 4.03-3.22 9.23-5.46 11.59-10.35 2.84-4.54 2.63-10.03 3.76-15.08 2.15-3.46 6.63-3.69 10.21-4.6 6.1-1.51 12.43-.04 18.58-.99a12 12 0 0 0 8.44-9.37c.86-4.75.14-9.62-1.2-14.2-1.91-5.88.11-12.47 4.12-16.99zM165.38 132.03l1.1.19c.65 7.62 2.8 15.14 2.34 22.83-.11 5.34-4.36 9.46-8.78 11.85-6.35 3.36-13.24 5.72-19.18 9.86-6 3.96-9.77 10.41-15.79 14.36-2.87 1.99-6.08 3.91-9.73 3.55 10.38-24.98 28.28-46.69 50.04-62.64zM104.22 233.13c6.53.29 13.67 1.38 18.72 5.87 3.96 3.7 1.77 9.37 2.06 14.07.28 7.99-.39 16.7 4.16 23.73 5.23 8.92 14.93 13.71 21.24 21.69 3.01 3.73 4.16 8.88 2.57 13.47-2.38 7.55-5.73 15-5.84 23.05-.35 5.84 1.76 11.98-.56 17.59-1.27 2.82-4.48 3.31-7.22 3.11-18.21-21.49-30.73-47.91-34.95-75.79-2.52-15.44-2.95-31.35-.18-46.79zM198.79 398.16c13.12-6.28 28.4-8.52 42.55-4.64 9.16 2.76 17.78 7.73 24.27 14.8l.23 1.04c-22.76 1.05-46.06-2.1-67.05-11.2z"/></g></svg>